<?xml version="1.0" encoding="UTF-8" standalone="no"?>
<!-- Created with Inkscape (http://www.inkscape.org/) -->

<svg
   width="512"
   height="512"
   viewBox="0 0 512 512"
   version="1.1"
   id="svg1"
   inkscape:version="1.3 (0e150ed6c4, 2023-07-21)"
   sodipodi:docname="flecha_bottom.svg"
   inkscape:dataloss="true"
   xmlns:inkscape="http://www.inkscape.org/namespaces/inkscape"
   xmlns:sodipodi="http://sodipodi.sourceforge.net/DTD/sodipodi-0.dtd"
   xmlns="http://www.w3.org/2000/svg"
   xmlns:svg="http://www.w3.org/2000/svg">
  <sodipodi:namedview
     id="namedview1"
     pagecolor="#505050"
     bordercolor="#ffffff"
     borderopacity="1"
     inkscape:showpageshadow="0"
     inkscape:pageopacity="0"
     inkscape:pagecheckerboard="1"
     inkscape:deskcolor="#505050"
     inkscape:document-units="px"
     inkscape:zoom="1.0869005"
     inkscape:cx="272.79407"
     inkscape:cy="292.11507"
     inkscape:window-width="1920"
     inkscape:window-height="1001"
     inkscape:window-x="-9"
     inkscape:window-y="-9"
     inkscape:window-maximized="1"
     inkscape:current-layer="layer1" />
  <defs
     id="defs1" />
  <g
     inkscape:label="Camada 1"
     inkscape:groupmode="layer"
     id="layer1">
    <path
       id="path1"
       style="fill:#000000;stroke-width:1.0654"
       d="M 256,512 A 256,256 0 0 0 512,256 256,256 0 0 0 256,0 256,256 0 0 0 0,256 256,256 0 0 0 256,512 Z m -1.9082,-124.07617 c -4.68771,0 -9.33417,-1.12544 -13.67383,-3.15039 -0.002,-8.6e-4 -0.004,-10e-4 -0.006,-0.002 -3.91451,-1.59283 -7.58582,-3.9823 -10.77149,-7.16796 L 58.51172,206.47461 c -12.74265,-12.74265 -12.74265,-33.25931 0,-46.00195 12.74264,-12.74265 33.25931,-12.74265 46.00195,0 l 149.23438,149.23437 148.4707,-148.4707 c 12.74263,-12.74264 33.25932,-12.74264 46.00195,0 12.74264,12.74263 12.74264,33.25932 0,46.00195 L 277.0918,378.36719 c -6.37133,6.37131 -14.68509,9.55664 -23,9.55664 z" />
  </g>
</svg>
